<svg width="800" height="800" viewBox="0 0 800 800" fill="none" xmlns="http://www.w3.org/2000/svg">
<path d="M400 67.9993C216.667 67.9993 66.667 217.666 66.667 402C66.667 568.667 188.667 707 348 732V498.667H263.334V402H348V328.333C348 244.666 397.667 198.666 474 198.666C510.334 198.666 548.334 204.999 548.334 204.999V287.333H506.334C465 287.333 452 312.999 452 339.333V402H544.667L529.667 498.667H452V732C530.547 719.593 602.074 679.517 653.664 619C705.254 558.487 733.514 481.52 733.334 402C733.334 217.666 583.334 67.9993 400 67.9993Z" fill="white"/>
</svg>
