<svg width="800" height="800" viewBox="0 0 800 800" fill="none" xmlns="http://www.w3.org/2000/svg">
<path fill-rule="evenodd" clip-rule="evenodd" d="M400 600C510.457 600 600 510.457 600 400C600 289.543 510.457 200 400 200C289.543 200 200 289.543 200 400C200 510.457 289.543 600 400 600ZM400 533.333C473.637 533.333 533.333 473.637 533.333 400C533.333 326.362 473.637 266.667 400 266.667C326.362 266.667 266.667 326.362 266.667 400C266.667 473.637 326.362 533.333 400 533.333Z" fill="white"/>
<path d="M600 166.667C581.59 166.667 566.667 181.591 566.667 200C566.667 218.409 581.59 233.333 600 233.333C618.41 233.333 633.334 218.409 633.334 200C633.334 181.591 618.41 166.667 600 166.667Z" fill="white"/>
<path fill-rule="evenodd" clip-rule="evenodd" d="M55.1317 142.535C33.333 185.318 33.333 241.323 33.333 353.333V446.667C33.333 558.677 33.333 614.683 55.1317 657.463C74.3063 695.097 104.902 725.693 142.535 744.867C185.317 766.667 241.323 766.667 353.333 766.667H446.666C558.676 766.667 614.683 766.667 657.463 744.867C695.096 725.693 725.693 695.097 744.866 657.463C766.666 614.683 766.666 558.677 766.666 446.667V353.333C766.666 241.323 766.666 185.318 744.866 142.535C725.693 104.903 695.096 74.3066 657.463 55.1319C614.683 33.3333 558.676 33.3333 446.666 33.3333H353.333C241.323 33.3333 185.317 33.3333 142.535 55.1319C104.902 74.3066 74.3063 104.903 55.1317 142.535ZM446.666 99.9999H353.333C296.228 99.9999 257.408 100.052 227.402 102.503C198.174 104.891 183.228 109.22 172.801 114.532C147.713 127.316 127.315 147.713 114.532 172.801C109.219 183.228 104.891 198.175 102.503 227.403C100.052 257.408 99.9997 296.228 99.9997 353.333V446.667C99.9997 503.773 100.052 542.59 102.503 572.597C104.891 601.827 109.219 616.773 114.532 627.2C127.315 652.287 147.713 672.683 172.801 685.467C183.228 690.78 198.174 695.11 227.402 697.497C257.408 699.947 296.228 700 353.333 700H446.666C503.773 700 542.59 699.947 572.596 697.497C601.826 695.11 616.773 690.78 627.2 685.467C652.286 672.683 672.683 652.287 685.466 627.2C690.78 616.773 695.11 601.827 697.496 572.597C699.946 542.59 700 503.773 700 446.667V353.333C700 296.228 699.946 257.408 697.496 227.403C695.11 198.175 690.78 183.228 685.466 172.801C672.683 147.713 652.286 127.316 627.2 114.532C616.773 109.22 601.826 104.891 572.596 102.503C542.59 100.052 503.773 99.9999 446.666 99.9999Z" fill="white"/>
</svg>
